<?xml version="1.0" encoding="utf-8"?>
<!-- Generator: Adobe Illustrator 24.0.2, SVG Export Plug-In . SVG Version: 6.00 Build 0)  -->
<svg version="1.1" id="Layer_1" xmlns="http://www.w3.org/2000/svg" xmlns:xlink="http://www.w3.org/1999/xlink" x="0px" y="0px"
	 viewBox="0 0 476 476" style="enable-background:new 0 0 476 476;" xml:space="preserve">
<style type="text/css">
	.st0{fill:none;}
	.st1{fill:url(#SVGID_1_);}
	.st2{fill:url(#SVGID_2_);}
	.st3{fill:#E50A13;}
</style>
<rect class="st0" width="476" height="476"/>
<g>
	
		<linearGradient id="SVGID_1_" gradientUnits="userSpaceOnUse" x1="245.0919" y1="397" x2="245.0919" y2="235.7899" gradientTransform="matrix(1 0 0 -1 0 454.95)">
		<stop  offset="0" style="stop-color:#E50A13"/>
		<stop  offset="0.3477" style="stop-color:#E30A13"/>
		<stop  offset="0.5114" style="stop-color:#DB0A12"/>
		<stop  offset="0.6366" style="stop-color:#CE0911"/>
		<stop  offset="0.7422" style="stop-color:#BC0810"/>
		<stop  offset="0.8354" style="stop-color:#A4070E"/>
		<stop  offset="0.9187" style="stop-color:#87060C"/>
		<stop  offset="0.9952" style="stop-color:#650409"/>
		<stop  offset="1" style="stop-color:#630409"/>
	</linearGradient>
	<path class="st1" d="M191.9,165.7c-0.2-8.8,1.7-19.3,8.4-29.7l7.7-12.9c0,0,11.6-15.7,5.4-29.2c0,0,9,4.2,9.3,18.1
		c0,0-0.2,8.4-2.5,14.9c-2.4,6.5-3.3,13.3-2.7,16.6c0.6,3.3,1.6,14.1,11.2,23.3c0,0-13.9-27.4,10.8-41.6c0,0-6.9,9.3-2.4,19.1
		s12,1.7,12,1.7s6.7-7.8,0-21.2l-6.3-9.7c0,0-14.4-19.5-5.9-41.2c0,0,4-11.1,15.2-16.1c0,0-13.7,18.2,11.4,46.9
		c0,0,40.3,39.4,12.7,69.3c0,0,15.2-3.8,17.4-29.2c5.9,7.3,17.7,72.1-49.1,74.2C197.4,215.5,192.1,178.5,191.9,165.7z"/>
	<g>
		<g>
			<linearGradient id="SVGID_2_" gradientUnits="userSpaceOnUse" x1="135.3204" y1="411.5369" x2="340.7671" y2="206.0902">
				<stop  offset="0" style="stop-color:#AD060D"/>
				<stop  offset="0.1686" style="stop-color:#AA060D"/>
				<stop  offset="0.27" style="stop-color:#A2060C"/>
				<stop  offset="0.3535" style="stop-color:#94050C"/>
				<stop  offset="0.427" style="stop-color:#80050B"/>
				<stop  offset="0.494" style="stop-color:#660409"/>
				<stop  offset="0.5" style="stop-color:#630409"/>
				<stop  offset="0.506" style="stop-color:#660409"/>
				<stop  offset="0.573" style="stop-color:#80050B"/>
				<stop  offset="0.6465" style="stop-color:#94060D"/>
				<stop  offset="0.73" style="stop-color:#A2070E"/>
				<stop  offset="0.8314" style="stop-color:#AA070F"/>
				<stop  offset="1" style="stop-color:#AD070F"/>
			</linearGradient>
			<polygon class="st2" points="334.2,199.5 334.2,405.2 294.1,405.2 224.1,337.4 224.1,366.3 141.8,418 141.8,212.5 181.9,212.5 
				259.3,290.8 259.3,250.9 			"/>
		</g>
		<polygon class="st3" points="294.1,405.1 141.8,257.6 141.8,212.5 181.9,212.5 259.3,290.8 334.2,362.2 334.2,405.1 		"/>
	</g>
</g>
</svg>
