<svg id="Layer_1" data-name="Layer 1" xmlns="http://www.w3.org/2000/svg" xmlns:xlink="http://www.w3.org/1999/xlink" viewBox="0 0 513.61 442.01"><defs><style>.cls-1{fill:#0d0c0c;}.cls-2{fill:#fff;}.cls-3{fill:url(#linear-gradient);}.cls-4{fill:url(#linear-gradient-2);}.cls-5{fill:url(#linear-gradient-3);}.cls-6{fill:url(#linear-gradient-4);}.cls-7{fill:url(#linear-gradient-5);}.cls-8{fill:url(#linear-gradient-6);}.cls-9{fill:url(#linear-gradient-7);}.cls-10{fill:url(#linear-gradient-8);}.cls-11{fill:url(#linear-gradient-9);}.cls-12{fill:url(#linear-gradient-10);}.cls-13{fill:url(#linear-gradient-11);}.cls-14{fill:url(#linear-gradient-12);}</style><linearGradient id="linear-gradient" x1="361.92" y1="306.5" x2="491.68" y2="176.74" gradientTransform="translate(-205.78 -20.64)" gradientUnits="userSpaceOnUse"><stop offset="0" stop-color="#d4353b"/><stop offset="0.15" stop-color="#cf353a"/><stop offset="0.24" stop-color="#c93237"/><stop offset="0.31" stop-color="#ba2f33"/><stop offset="0.38" stop-color="#a7292c"/><stop offset="0.44" stop-color="#8d2124"/><stop offset="0.5" stop-color="#6d191b"/><stop offset="0.5" stop-color="#6a181a"/><stop offset="0.5" stop-color="#6d191b"/><stop offset="0.56" stop-color="#8d2124"/><stop offset="0.62" stop-color="#a7292c"/><stop offset="0.69" stop-color="#ba2f33"/><stop offset="0.76" stop-color="#c93237"/><stop offset="0.85" stop-color="#cf353a"/><stop offset="1" stop-color="#d4353b"/></linearGradient><linearGradient id="linear-gradient-2" x1="362.01" y1="400.36" x2="491.63" y2="400.36" gradientTransform="matrix(1, 0, 0, -1, -205.78, 621.36)" gradientUnits="userSpaceOnUse"><stop offset="1" stop-color="#d2373a"/><stop offset="1" stop-color="#942529"/></linearGradient><linearGradient id="linear-gradient-3" x1="238.1" y1="431.09" x2="245.89" y2="431.09" gradientTransform="matrix(1, 0, 0, -1, 0, 672)" gradientUnits="userSpaceOnUse"><stop offset="0" stop-color="#6d191b"/><stop offset="0.09" stop-color="#7d1f21"/><stop offset="0.26" stop-color="#9b282b"/><stop offset="0.44" stop-color="#b32e33"/><stop offset="0.62" stop-color="#c53237"/><stop offset="0.8" stop-color="#d0343a"/><stop offset="1" stop-color="#d4353b"/></linearGradient><linearGradient id="linear-gradient-4" x1="257.2" y1="415.76" x2="258.08" y2="415.76" xlink:href="#linear-gradient-3"/><linearGradient id="linear-gradient-5" x1="237.76" y1="389.16" x2="342.35" y2="389.16" xlink:href="#linear-gradient-3"/><linearGradient id="linear-gradient-6" x1="246.19" y1="419.72" x2="254.56" y2="419.72" xlink:href="#linear-gradient-3"/><linearGradient id="linear-gradient-7" x1="257.19" y1="415.9" x2="257.19" y2="415.9" xlink:href="#linear-gradient-3"/><linearGradient id="linear-gradient-8" x1="607.66" y1="431.09" x2="615.45" y2="431.09" gradientTransform="matrix(1, 0, 0, -1, 0, 672)" gradientUnits="userSpaceOnUse"><stop offset="0" stop-color="#d4353b"/><stop offset="0.18" stop-color="#cf343a"/><stop offset="0.37" stop-color="#c23137"/><stop offset="0.56" stop-color="#ae2d31"/><stop offset="0.76" stop-color="#932629"/><stop offset="0.97" stop-color="#731b1d"/><stop offset="1" stop-color="#6d191b"/></linearGradient><linearGradient id="linear-gradient-9" x1="595.47" y1="415.76" x2="596.35" y2="415.76" xlink:href="#linear-gradient-8"/><linearGradient id="linear-gradient-10" x1="511.33" y1="389.13" x2="615.81" y2="389.13" xlink:href="#linear-gradient-8"/><linearGradient id="linear-gradient-11" x1="599" y1="419.72" x2="607.37" y2="419.72" xlink:href="#linear-gradient-8"/><linearGradient id="linear-gradient-12" x1="596.45" y1="415.9" x2="596.45" y2="415.9" xlink:href="#linear-gradient-8"/></defs><title>my-logo-2</title><path class="cls-1" d="M719.39,268.3a39.14,39.14,0,0,1-.6,5.8C719.09,272.2,719.19,270.3,719.39,268.3Z" transform="translate(-205.78 -50.64)"/><rect class="cls-2" width="442.01" height="442.01"/><polygon class="cls-3" points="285.85 156.05 285.85 285.95 258.9 285.95 207.01 235.58 207.01 259.77 171.59 285.95 156.16 285.88 156.16 156.05 183.17 156.05 235.41 208.91 235.41 181.96 270.41 156.05 285.85 156.05"/><polygon class="cls-4" points="258.9 285.95 156.22 186.51 156.22 156.05 183.24 156.05 235.47 208.84 285.85 257.01 285.85 285.95 258.9 285.95"/><path class="cls-5" d="M238.1,232.74a29,29,0,0,0,7.79,16.33C240.65,243.56,238.79,236.74,238.1,232.74Z" transform="translate(-205.78 -50.64)"/><path class="cls-6" d="M257.26,256.1c.34.07.62.21.9.28A7,7,0,0,1,257.26,256.1Z" transform="translate(-205.78 -50.64)"/><path class="cls-7" d="M237.76,229.36c.07,1.1.2,2.14.27,3.1,0,.07.07.14.07.28a31.09,31.09,0,0,0,7.79,16.33l.27.28c.42.41.9.82,1.31,1.24.21.14.42.34.62.48a4.16,4.16,0,0,0,.62.48c.21.14.35.28.56.42s.34.27.48.34.27.21.41.28A25.81,25.81,0,0,0,254.5,255c.14.07.35.14.49.2s.27.07.41.14.27.07.41.14a3.79,3.79,0,0,0,.48.21c.28.07.56.2.83.27,0,0,.62.21,1,.28h.07l47.75,18-59.06-15.57c7.45,9.72,8.2,17.16,8.2,17.16l52.72,7-52.72-2a26.57,26.57,0,0,1,8.2,14.4l50.24,1-41.76,3.72c13,5.24,15.92,12.68,15.92,12.68l32-10.2L293.58,315.5a29.35,29.35,0,0,1,13.16,5.93l13.92-8.2-10.68,10c4,3.72,13.16,3.45,13.16,3.45,13.3-.42,18.26,8.47,18.81,9.58v.06s3.38-19.43-16.81-36.86c-15-13-7.31-31.15-7.31-31.15Z" transform="translate(-205.78 -50.64)"/><path class="cls-8" d="M246.16,249.42a26.83,26.83,0,0,0,8.41,5.72,35.59,35.59,0,0,1-4.34-2.42c-.14-.07-.28-.2-.41-.27s-.35-.28-.49-.35-.34-.27-.55-.41-.41-.34-.62-.48a5,5,0,0,1-.62-.48A18.6,18.6,0,0,0,246.16,249.42Z" transform="translate(-205.78 -50.64)"/><path class="cls-9" d="M257.19,256.1" transform="translate(-205.78 -50.64)"/><path class="cls-10" d="M615.47,232.74a29.16,29.16,0,0,1-7.79,16.33C612.92,243.56,614.78,236.74,615.47,232.74Z" transform="translate(-205.78 -50.64)"/><path class="cls-11" d="M596.38,256.1c-.35.07-.62.21-.9.28C595.76,256.31,596.1,256.17,596.38,256.1Z" transform="translate(-205.78 -50.64)"/><path class="cls-12" d="M615.81,229.36c-.07,1.1-.21,2.14-.27,3.1,0,.07-.07.14-.07.28a31.09,31.09,0,0,1-7.79,16.33l-.28.28c-.41.41-.89.82-1.31,1.24-.2.14-.41.34-.62.48a3.34,3.34,0,0,1-.62.48c-.2.14-.34.28-.55.42s-.34.27-.48.34-.28.21-.41.28a26.21,26.21,0,0,1-4.34,2.41c-.14.07-.35.14-.49.2s-.27.07-.41.14-.28.07-.41.14a3.41,3.41,0,0,1-.49.21c-.27.07-.55.2-.82.27,0,0-.62.21-1,.28h-.07l-47.75,18.12,58.92-15.64c-7.45,9.72-8.2,17.16-8.2,17.16l-52.72,7,52.72-2a26.57,26.57,0,0,0-8.2,14.4l-50.24,1,41.76,3.72c-13,5.24-15.92,12.68-15.92,12.68l-32-10.2,26.11,13.16a29.35,29.35,0,0,0-13.16,5.93l-13.92-8.2,10.68,10c-4,3.72-13.16,3.45-13.16,3.45-13.3-.42-18.26,8.47-18.81,9.57v.07s-3.38-19.43,16.81-36.86c14.95-13,7.31-31.15,7.31-31.15Z" transform="translate(-205.78 -50.64)"/><path class="cls-13" d="M607.4,249.42a26.67,26.67,0,0,1-8.4,5.72,35.59,35.59,0,0,0,4.34-2.42c.14-.07.27-.2.41-.27s.35-.28.48-.35.35-.27.55-.41.42-.34.63-.48a5,5,0,0,0,.62-.48A11.3,11.3,0,0,1,607.4,249.42Z" transform="translate(-205.78 -50.64)"/><path class="cls-14" d="M596.45,256.1" transform="translate(-205.78 -50.64)"/></svg>