<?xml version="1.0" encoding="utf-8"?>
<!-- Generator: Adobe Illustrator 24.0.2, SVG Export Plug-In . SVG Version: 6.00 Build 0)  -->
<svg version="1.1" id="Layer_1" xmlns="http://www.w3.org/2000/svg" xmlns:xlink="http://www.w3.org/1999/xlink" x="0px" y="0px"
	 viewBox="0 0 871.5 641.7" style="enable-background:new 0 0 871.5 641.7;" xml:space="preserve">
<style type="text/css">
	.st0{fill:#0D0C0C;}
	.st1{fill:url(#SVGID_1_);}
	.st2{fill:url(#SVGID_2_);}
	.st3{fill:url(#SVGID_3_);}
	.st4{fill:url(#SVGID_4_);}
	.st5{fill:url(#SVGID_5_);}
	.st6{fill:url(#SVGID_6_);}
	.st7{fill:url(#SVGID_7_);}
	.st8{fill:url(#SVGID_8_);}
	.st9{fill:url(#SVGID_9_);}
	.st10{fill:url(#SVGID_10_);}
	.st11{fill:url(#SVGID_11_);}
	.st12{fill:url(#SVGID_12_);}
</style>
<path class="st0" d="M730.7,240.3c0,0,0,2.2-0.6,5.8C730.4,244.2,730.5,242.3,730.7,240.3z"/>
<g>
	<g>
		<linearGradient id="SVGID_1_" gradientUnits="userSpaceOnUse" x1="341.5634" y1="414.9806" x2="529.8806" y2="226.6634">
			<stop  offset="0" style="stop-color:#D4353B"/>
			<stop  offset="0.1502" style="stop-color:#CF353A"/>
			<stop  offset="0.2405" style="stop-color:#C93237"/>
			<stop  offset="0.3149" style="stop-color:#BA2F33"/>
			<stop  offset="0.3808" style="stop-color:#A7292C"/>
			<stop  offset="0.4404" style="stop-color:#8D2124"/>
			<stop  offset="0.4958" style="stop-color:#6D191B"/>
			<stop  offset="0.5" style="stop-color:#6A181A"/>
			<stop  offset="0.5042" style="stop-color:#6D191B"/>
			<stop  offset="0.5596" style="stop-color:#8D2124"/>
			<stop  offset="0.6192" style="stop-color:#A7292C"/>
			<stop  offset="0.6851" style="stop-color:#BA2F33"/>
			<stop  offset="0.7595" style="stop-color:#C93237"/>
			<stop  offset="0.8498" style="stop-color:#CF353A"/>
			<stop  offset="1" style="stop-color:#D4353B"/>
		</linearGradient>
		<polygon class="st1" points="529.8,226.6 529.8,415.1 490.7,415.1 415.4,342 415.4,377.1 364,415.1 341.6,415 341.6,226.6 
			380.8,226.6 456.6,303.3 456.6,264.2 507.4,226.6 		"/>
	</g>
	
		<linearGradient id="SVGID_2_" gradientUnits="userSpaceOnUse" x1="341.6755" y1="321.15" x2="529.8246" y2="321.15" gradientTransform="matrix(1 0 0 -1 0 642)">
		<stop  offset="1" style="stop-color:#D2373A"/>
		<stop  offset="1" style="stop-color:#942529"/>
	</linearGradient>
	<polygon class="st2" points="490.7,415.1 341.7,270.8 341.7,226.6 380.9,226.6 456.7,303.2 529.8,373.1 529.8,415.1 	"/>
	<g>
		
			<linearGradient id="SVGID_3_" gradientUnits="userSpaceOnUse" x1="161.9419" y1="365.751" x2="173.2341" y2="365.751" gradientTransform="matrix(1 0 0 -1 0 642)">
			<stop  offset="0" style="stop-color:#6D191B"/>
			<stop  offset="8.849955e-02" style="stop-color:#7D1F21"/>
			<stop  offset="0.2607" style="stop-color:#9B282B"/>
			<stop  offset="0.4368" style="stop-color:#B32E33"/>
			<stop  offset="0.6164" style="stop-color:#C53237"/>
			<stop  offset="0.8014" style="stop-color:#D0343A"/>
			<stop  offset="1" style="stop-color:#D4353B"/>
		</linearGradient>
		<path class="st3" d="M161.9,264.4c1.7,10.9,6.2,18.5,11.3,23.7C165.6,280.1,162.9,270.2,161.9,264.4z"/>
		<g>
			
				<linearGradient id="SVGID_4_" gradientUnits="userSpaceOnUse" x1="189.6653" y1="343.5262" x2="190.9358" y2="343.5262" gradientTransform="matrix(1 0 0 -1 0 642)">
				<stop  offset="0" style="stop-color:#6D191B"/>
				<stop  offset="8.849955e-02" style="stop-color:#7D1F21"/>
				<stop  offset="0.2607" style="stop-color:#9B282B"/>
				<stop  offset="0.4368" style="stop-color:#B32E33"/>
				<stop  offset="0.6164" style="stop-color:#C53237"/>
				<stop  offset="0.8014" style="stop-color:#D0343A"/>
				<stop  offset="1" style="stop-color:#D4353B"/>
			</linearGradient>
			<path class="st4" d="M189.7,298.3c0.5,0.1,0.9,0.3,1.3,0.4C190.5,298.6,190,298.4,189.7,298.3z"/>
			
				<linearGradient id="SVGID_5_" gradientUnits="userSpaceOnUse" x1="161.4218" y1="304.8305" x2="313.2028" y2="304.8305" gradientTransform="matrix(1 0 0 -1 0 642)">
				<stop  offset="0" style="stop-color:#6D191B"/>
				<stop  offset="8.849955e-02" style="stop-color:#7D1F21"/>
				<stop  offset="0.2607" style="stop-color:#9B282B"/>
				<stop  offset="0.4368" style="stop-color:#B32E33"/>
				<stop  offset="0.6164" style="stop-color:#C53237"/>
				<stop  offset="0.8014" style="stop-color:#D0343A"/>
				<stop  offset="1" style="stop-color:#D4353B"/>
			</linearGradient>
			<path class="st5" d="M161.4,259.5c0.1,1.6,0.3,3.1,0.4,4.5c0,0.1,0.1,0.2,0.1,0.4c0.9,5.8,3.7,15.7,11.3,23.7
				c0.1,0.1,0.3,0.3,0.4,0.4c0.6,0.6,1.3,1.2,1.9,1.8c0.3,0.2,0.6,0.5,0.9,0.7c0.3,0.3,0.6,0.5,0.9,0.7c0.3,0.2,0.5,0.4,0.8,0.6
				c0.3,0.2,0.5,0.4,0.7,0.5c0.2,0.1,0.4,0.3,0.6,0.4c2.2,1.5,4.4,2.7,6.3,3.5c0.2,0.1,0.5,0.2,0.7,0.3c0.2,0.1,0.4,0.1,0.6,0.2
				s0.4,0.1,0.6,0.2c0.2,0.1,0.4,0.2,0.7,0.3c0.4,0.1,0.8,0.3,1.2,0.4c0,0,0.9,0.3,1.4,0.4h0.1l69.3,26.1l-85.6-22.6
				c10.8,14.1,11.9,24.9,11.9,24.9l76.5,10.1l-76.5-2.9c10.1,9,11.9,20.9,11.9,20.9l72.9,1.4l-60.6,5.4
				c18.8,7.6,23.1,18.4,23.1,18.4l46.5-14.8l-37.9,19.1c11.9,2.2,19.1,8.6,19.1,8.6l20.2-11.9l-15.5,14.5c5.8,5.4,19.1,5,19.1,5
				c19.3-0.6,26.5,12.3,27.3,13.9v0.1c0,0,4.9-28.2-24.4-53.5c-21.7-18.8-10.6-45.2-10.6-45.2L161.4,259.5z"/>
			
				<linearGradient id="SVGID_6_" gradientUnits="userSpaceOnUse" x1="173.6847" y1="349.2802" x2="185.84" y2="349.2802" gradientTransform="matrix(1 0 0 -1 0 642)">
				<stop  offset="0" style="stop-color:#6D191B"/>
				<stop  offset="8.849955e-02" style="stop-color:#7D1F21"/>
				<stop  offset="0.2607" style="stop-color:#9B282B"/>
				<stop  offset="0.4368" style="stop-color:#B32E33"/>
				<stop  offset="0.6164" style="stop-color:#C53237"/>
				<stop  offset="0.8014" style="stop-color:#D0343A"/>
				<stop  offset="1" style="stop-color:#D4353B"/>
			</linearGradient>
			<path class="st6" d="M173.6,288.6c3.2,3.2,7.1,6.1,12.2,8.3c-1.9-0.9-4-2-6.3-3.5c-0.2-0.1-0.4-0.3-0.6-0.4
				c-0.2-0.1-0.5-0.4-0.7-0.5c-0.3-0.2-0.5-0.4-0.8-0.6c-0.3-0.2-0.6-0.5-0.9-0.7c-0.3-0.2-0.6-0.4-0.9-0.7
				C174.9,289.8,174.3,289.2,173.6,288.6z"/>
			
				<linearGradient id="SVGID_7_" gradientUnits="userSpaceOnUse" x1="189.6165" y1="343.706" x2="189.6165" y2="343.706" gradientTransform="matrix(1 0 0 -1 0 642)">
				<stop  offset="0" style="stop-color:#6D191B"/>
				<stop  offset="8.849955e-02" style="stop-color:#7D1F21"/>
				<stop  offset="0.2607" style="stop-color:#9B282B"/>
				<stop  offset="0.4368" style="stop-color:#B32E33"/>
				<stop  offset="0.6164" style="stop-color:#C53237"/>
				<stop  offset="0.8014" style="stop-color:#D0343A"/>
				<stop  offset="1" style="stop-color:#D4353B"/>
			</linearGradient>
			<path class="st7" d="M189.6,298.3"/>
		</g>
	</g>
	<g>
		
			<linearGradient id="SVGID_8_" gradientUnits="userSpaceOnUse" x1="698.2274" y1="365.751" x2="709.5196" y2="365.751" gradientTransform="matrix(1 0 0 -1 0 642)">
			<stop  offset="0" style="stop-color:#D4353B"/>
			<stop  offset="0.1764" style="stop-color:#CF343A"/>
			<stop  offset="0.3665" style="stop-color:#C23137"/>
			<stop  offset="0.5629" style="stop-color:#AE2D31"/>
			<stop  offset="0.7637" style="stop-color:#932629"/>
			<stop  offset="0.9662" style="stop-color:#731B1D"/>
			<stop  offset="1" style="stop-color:#6D191B"/>
		</linearGradient>
		<path class="st8" d="M709.5,264.4c-1.7,10.9-6.2,18.5-11.3,23.7C705.8,280.1,708.6,270.2,709.5,264.4z"/>
		<g>
			
				<linearGradient id="SVGID_9_" gradientUnits="userSpaceOnUse" x1="680.5343" y1="343.5262" x2="681.8049" y2="343.5262" gradientTransform="matrix(1 0 0 -1 0 642)">
				<stop  offset="0" style="stop-color:#D4353B"/>
				<stop  offset="0.1764" style="stop-color:#CF343A"/>
				<stop  offset="0.3665" style="stop-color:#C23137"/>
				<stop  offset="0.5629" style="stop-color:#AE2D31"/>
				<stop  offset="0.7637" style="stop-color:#932629"/>
				<stop  offset="0.9662" style="stop-color:#731B1D"/>
				<stop  offset="1" style="stop-color:#6D191B"/>
			</linearGradient>
			<path class="st9" d="M681.8,298.3c-0.5,0.1-0.9,0.3-1.3,0.4C680.9,298.6,681.4,298.4,681.8,298.3z"/>
			
				<linearGradient id="SVGID_10_" gradientUnits="userSpaceOnUse" x1="558.2973" y1="304.8305" x2="710.0782" y2="304.8305" gradientTransform="matrix(1 0 0 -1 0 642)">
				<stop  offset="0" style="stop-color:#D4353B"/>
				<stop  offset="0.1764" style="stop-color:#CF343A"/>
				<stop  offset="0.3665" style="stop-color:#C23137"/>
				<stop  offset="0.5629" style="stop-color:#AE2D31"/>
				<stop  offset="0.7637" style="stop-color:#932629"/>
				<stop  offset="0.9662" style="stop-color:#731B1D"/>
				<stop  offset="1" style="stop-color:#6D191B"/>
			</linearGradient>
			<path class="st10" d="M710.1,259.5c-0.1,1.6-0.3,3.1-0.4,4.5c0,0.1-0.1,0.2-0.1,0.4c-0.9,5.8-3.7,15.7-11.3,23.7
				c-0.1,0.1-0.3,0.3-0.4,0.4c-0.6,0.6-1.3,1.2-1.9,1.8c-0.3,0.2-0.6,0.5-0.9,0.7c-0.3,0.3-0.6,0.5-0.9,0.7
				c-0.3,0.2-0.5,0.4-0.8,0.6c-0.3,0.2-0.5,0.4-0.7,0.5c-0.2,0.1-0.4,0.3-0.6,0.4c-2.2,1.5-4.4,2.7-6.3,3.5
				c-0.2,0.1-0.5,0.2-0.7,0.3c-0.2,0.1-0.4,0.1-0.6,0.2c-0.2,0.1-0.4,0.1-0.6,0.2c-0.2,0.1-0.4,0.2-0.7,0.3
				c-0.4,0.1-0.8,0.3-1.2,0.4c0,0-0.9,0.3-1.4,0.4h-0.1l-69.3,26.3l85.5-22.7c-10.8,14.1-11.9,24.9-11.9,24.9l-76.5,10.1l76.5-2.9
				c-10.1,9-11.9,20.9-11.9,20.9l-72.9,1.4l60.6,5.4c-18.8,7.6-23.1,18.4-23.1,18.4L591,365.5l37.9,19.1
				c-11.9,2.2-19.1,8.6-19.1,8.6l-20.2-11.9l15.5,14.5c-5.8,5.4-19.1,5-19.1,5c-19.3-0.6-26.5,12.3-27.3,13.9v0.1
				c0,0-4.9-28.2,24.4-53.5c21.7-18.8,10.6-45.2,10.6-45.2L710.1,259.5z"/>
			
				<linearGradient id="SVGID_11_" gradientUnits="userSpaceOnUse" x1="685.6403" y1="349.2802" x2="697.7956" y2="349.2802" gradientTransform="matrix(1 0 0 -1 0 642)">
				<stop  offset="0" style="stop-color:#D4353B"/>
				<stop  offset="0.1764" style="stop-color:#CF343A"/>
				<stop  offset="0.3665" style="stop-color:#C23137"/>
				<stop  offset="0.5629" style="stop-color:#AE2D31"/>
				<stop  offset="0.7637" style="stop-color:#932629"/>
				<stop  offset="0.9662" style="stop-color:#731B1D"/>
				<stop  offset="1" style="stop-color:#6D191B"/>
			</linearGradient>
			<path class="st11" d="M697.8,288.6c-3.2,3.2-7.1,6.1-12.2,8.3c1.9-0.9,4-2,6.3-3.5c0.2-0.1,0.4-0.3,0.6-0.4
				c0.2-0.1,0.5-0.4,0.7-0.5c0.3-0.2,0.5-0.4,0.8-0.6c0.3-0.2,0.6-0.5,0.9-0.7c0.3-0.2,0.6-0.4,0.9-0.7
				C696.5,289.8,697.1,289.2,697.8,288.6z"/>
			
				<linearGradient id="SVGID_12_" gradientUnits="userSpaceOnUse" x1="681.8835" y1="343.706" x2="681.8835" y2="343.706" gradientTransform="matrix(1 0 0 -1 0 642)">
				<stop  offset="0" style="stop-color:#D4353B"/>
				<stop  offset="0.1764" style="stop-color:#CF343A"/>
				<stop  offset="0.3665" style="stop-color:#C23137"/>
				<stop  offset="0.5629" style="stop-color:#AE2D31"/>
				<stop  offset="0.7637" style="stop-color:#932629"/>
				<stop  offset="0.9662" style="stop-color:#731B1D"/>
				<stop  offset="1" style="stop-color:#6D191B"/>
			</linearGradient>
			<path class="st12" d="M681.9,298.3"/>
		</g>
	</g>
</g>
</svg>
