<?xml version="1.0" encoding="utf-8"?>
<!-- Generator: Adobe Illustrator 24.0.2, SVG Export Plug-In . SVG Version: 6.00 Build 0)  -->
<svg version="1.1" id="Layer_1" xmlns="http://www.w3.org/2000/svg" xmlns:xlink="http://www.w3.org/1999/xlink" x="0px" y="0px"
	 viewBox="0 0 871.5 641.7" style="enable-background:new 0 0 871.5 641.7;" xml:space="preserve">
<style type="text/css">
	.st0{fill:#0D0C0C;}
	.st1{fill:url(#SVGID_1_);}
	.st2{fill:url(#SVGID_2_);}
	.st3{fill:url(#SVGID_3_);}
	.st4{fill:url(#SVGID_4_);}
	.st5{fill:url(#SVGID_5_);}
	.st6{fill:url(#SVGID_6_);}
	.st7{fill:url(#SVGID_7_);}
	.st8{fill:url(#SVGID_8_);}
	.st9{fill:url(#SVGID_9_);}
	.st10{fill:url(#SVGID_10_);}
	.st11{fill:url(#SVGID_11_);}
	.st12{fill:url(#SVGID_12_);}
	.st13{fill:url(#SVGID_13_);}
	.st14{fill:url(#SVGID_14_);}
	.st15{fill:url(#SVGID_15_);}
</style>
<path class="st0" d="M730.7,240.3c0,0,0,2.2-0.6,5.8C730.4,244.2,730.5,242.3,730.7,240.3z"/>
<g>
	<g>
		<linearGradient id="SVGID_1_" gradientUnits="userSpaceOnUse" x1="347.992" y1="419.8397" x2="516.107" y2="251.7247">
			<stop  offset="0" style="stop-color:#D4353B"/>
			<stop  offset="0.1502" style="stop-color:#CF353A"/>
			<stop  offset="0.2405" style="stop-color:#C93237"/>
			<stop  offset="0.3149" style="stop-color:#BA2F33"/>
			<stop  offset="0.3808" style="stop-color:#A7292C"/>
			<stop  offset="0.4404" style="stop-color:#8D2124"/>
			<stop  offset="0.4958" style="stop-color:#6D191B"/>
			<stop  offset="0.5" style="stop-color:#6A181A"/>
			<stop  offset="0.5042" style="stop-color:#6D191B"/>
			<stop  offset="0.5596" style="stop-color:#8D2124"/>
			<stop  offset="0.6192" style="stop-color:#A7292C"/>
			<stop  offset="0.6851" style="stop-color:#BA2F33"/>
			<stop  offset="0.7595" style="stop-color:#C93237"/>
			<stop  offset="0.8498" style="stop-color:#CF353A"/>
			<stop  offset="1" style="stop-color:#D4353B"/>
		</linearGradient>
		<polygon class="st1" points="516,251.6 516,420 481.1,420 419.9,360.7 419.9,386 348,419.9 348,251.6 383,251.6 450.7,320.1 
			450.7,285.2 		"/>
	</g>
	<linearGradient id="SVGID_2_" gradientUnits="userSpaceOnUse" x1="348.0271" y1="335.7654" x2="516.0314" y2="335.7654">
		<stop  offset="1" style="stop-color:#D2373A"/>
		<stop  offset="1" style="stop-color:#942529"/>
	</linearGradient>
	<polygon class="st2" points="481.1,419.9 348,291.1 348,251.6 383,251.6 450.7,320 516,382.4 516,419.9 	"/>
	<g>
		<linearGradient id="SVGID_3_" gradientUnits="userSpaceOnUse" x1="112.3231" y1="227.0648" x2="128.0351" y2="227.0648">
			<stop  offset="0" style="stop-color:#6D191B"/>
			<stop  offset="8.849955e-02" style="stop-color:#7D1F21"/>
			<stop  offset="0.2607" style="stop-color:#9B282B"/>
			<stop  offset="0.4368" style="stop-color:#B32E33"/>
			<stop  offset="0.6164" style="stop-color:#C53237"/>
			<stop  offset="0.8014" style="stop-color:#D0343A"/>
			<stop  offset="1" style="stop-color:#D4353B"/>
		</linearGradient>
		<path class="st3" d="M112.3,210.6c2.3,15.2,8.6,25.7,15.7,32.9C117.4,232.4,113.7,218.7,112.3,210.6z"/>
		<g>
			<linearGradient id="SVGID_4_" gradientUnits="userSpaceOnUse" x1="150.8679" y1="258.0225" x2="152.6344" y2="258.0225">
				<stop  offset="0" style="stop-color:#6D191B"/>
				<stop  offset="8.849955e-02" style="stop-color:#7D1F21"/>
				<stop  offset="0.2607" style="stop-color:#9B282B"/>
				<stop  offset="0.4368" style="stop-color:#B32E33"/>
				<stop  offset="0.6164" style="stop-color:#C53237"/>
				<stop  offset="0.8014" style="stop-color:#D0343A"/>
				<stop  offset="1" style="stop-color:#D4353B"/>
			</linearGradient>
			<path class="st4" d="M150.9,257.7c0.7,0.2,1.3,0.4,1.8,0.5C152,258.1,151.4,257.9,150.9,257.7z"/>
			<linearGradient id="SVGID_5_" gradientUnits="userSpaceOnUse" x1="111.5989" y1="311.8185" x2="322.6839" y2="311.8185">
				<stop  offset="0" style="stop-color:#6D191B"/>
				<stop  offset="8.849955e-02" style="stop-color:#7D1F21"/>
				<stop  offset="0.2607" style="stop-color:#9B282B"/>
				<stop  offset="0.4368" style="stop-color:#B32E33"/>
				<stop  offset="0.6164" style="stop-color:#C53237"/>
				<stop  offset="0.8014" style="stop-color:#D0343A"/>
				<stop  offset="1" style="stop-color:#D4353B"/>
			</linearGradient>
			<path class="st5" d="M111.6,203.8c0.1,2.2,0.4,4.3,0.6,6.3c0,0.2,0.1,0.3,0.1,0.5c1.3,8.1,5.1,21.8,15.7,32.9
				c0.2,0.2,0.4,0.4,0.6,0.6c0.9,0.9,1.8,1.7,2.7,2.5c0.4,0.3,0.8,0.7,1.2,1c0.4,0.4,0.9,0.7,1.3,1c0.4,0.3,0.7,0.5,1.1,0.8
				c0.4,0.3,0.7,0.5,1,0.7c0.3,0.2,0.6,0.4,0.9,0.6c3.1,2.1,6.1,3.7,8.7,4.8c0.3,0.1,0.7,0.3,1,0.4c0.3,0.1,0.5,0.2,0.8,0.3
				c0.3,0.1,0.5,0.2,0.8,0.3c0.3,0.1,0.6,0.3,1,0.4c0.6,0.2,1.1,0.4,1.7,0.6c0,0,1.3,0.4,1.9,0.6l0.1,0l96.4,36.3L130.2,263
				c15,19.6,16.6,34.6,16.6,34.6l106.4,14l-106.4-4c14,12.5,16.6,29.1,16.6,29.1l101.3,2l-84.3,7.5c26.1,10.5,32.1,25.6,32.1,25.6
				l64.7-20.6l-52.7,26.6c16.6,3,26.6,12,26.6,12l28.1-16.6l-21.6,20.1c8,7.5,26.6,7,26.6,7c26.8-0.9,36.9,17.1,38,19.3l0,0.1
				c0,0,6.8-39.2-33.9-74.4c-30.2-26.1-14.7-62.9-14.7-62.9L111.6,203.8z"/>
			<linearGradient id="SVGID_6_" gradientUnits="userSpaceOnUse" x1="128.6495" y1="249.9142" x2="145.5355" y2="249.9142">
				<stop  offset="0" style="stop-color:#6D191B"/>
				<stop  offset="8.849955e-02" style="stop-color:#7D1F21"/>
				<stop  offset="0.2607" style="stop-color:#9B282B"/>
				<stop  offset="0.4368" style="stop-color:#B32E33"/>
				<stop  offset="0.6164" style="stop-color:#C53237"/>
				<stop  offset="0.8014" style="stop-color:#D0343A"/>
				<stop  offset="1" style="stop-color:#D4353B"/>
			</linearGradient>
			<path class="st6" d="M128.6,244.2c4.4,4.5,9.9,8.5,16.9,11.5c-2.6-1.2-5.6-2.8-8.7-4.8c-0.3-0.2-0.6-0.4-0.9-0.6
				c-0.3-0.2-0.7-0.5-1-0.7c-0.4-0.3-0.7-0.5-1.1-0.8c-0.4-0.3-0.9-0.7-1.3-1c-0.4-0.3-0.8-0.6-1.2-1
				C130.4,245.9,129.5,245.1,128.6,244.2z"/>
			<linearGradient id="SVGID_7_" gradientUnits="userSpaceOnUse" x1="150.8021" y1="257.7263" x2="150.8021" y2="257.7263">
				<stop  offset="0" style="stop-color:#6D191B"/>
				<stop  offset="8.849955e-02" style="stop-color:#7D1F21"/>
				<stop  offset="0.2607" style="stop-color:#9B282B"/>
				<stop  offset="0.4368" style="stop-color:#B32E33"/>
				<stop  offset="0.6164" style="stop-color:#C53237"/>
				<stop  offset="0.8014" style="stop-color:#D0343A"/>
				<stop  offset="1" style="stop-color:#D4353B"/>
			</linearGradient>
			<path class="st7" d="M150.8,257.7"/>
		</g>
	</g>
	<g>
		<linearGradient id="SVGID_8_" gradientUnits="userSpaceOnUse" x1="736.0234" y1="227.0648" x2="751.7354" y2="227.0648">
			<stop  offset="0" style="stop-color:#D4353B"/>
			<stop  offset="0.1764" style="stop-color:#CF343A"/>
			<stop  offset="0.3665" style="stop-color:#C23137"/>
			<stop  offset="0.5629" style="stop-color:#AE2D31"/>
			<stop  offset="0.7637" style="stop-color:#932629"/>
			<stop  offset="0.9662" style="stop-color:#731B1D"/>
			<stop  offset="1" style="stop-color:#6D191B"/>
		</linearGradient>
		<path class="st8" d="M751.7,210.6c-2.3,15.2-8.6,25.7-15.7,32.9C746.6,232.4,750.4,218.7,751.7,210.6z"/>
		<g>
			<linearGradient id="SVGID_9_" gradientUnits="userSpaceOnUse" x1="711.4241" y1="258.0225" x2="713.1906" y2="258.0225">
				<stop  offset="0" style="stop-color:#D4353B"/>
				<stop  offset="0.1764" style="stop-color:#CF343A"/>
				<stop  offset="0.3665" style="stop-color:#C23137"/>
				<stop  offset="0.5629" style="stop-color:#AE2D31"/>
				<stop  offset="0.7637" style="stop-color:#932629"/>
				<stop  offset="0.9662" style="stop-color:#731B1D"/>
				<stop  offset="1" style="stop-color:#6D191B"/>
			</linearGradient>
			<path class="st9" d="M713.2,257.7c-0.7,0.2-1.3,0.4-1.8,0.5C712,258.1,712.6,257.9,713.2,257.7z"/>
			<linearGradient id="SVGID_10_" gradientUnits="userSpaceOnUse" x1="541.3747" y1="311.8185" x2="752.4596" y2="311.8185">
				<stop  offset="0" style="stop-color:#D4353B"/>
				<stop  offset="0.1764" style="stop-color:#CF343A"/>
				<stop  offset="0.3665" style="stop-color:#C23137"/>
				<stop  offset="0.5629" style="stop-color:#AE2D31"/>
				<stop  offset="0.7637" style="stop-color:#932629"/>
				<stop  offset="0.9662" style="stop-color:#731B1D"/>
				<stop  offset="1" style="stop-color:#6D191B"/>
			</linearGradient>
			<path class="st10" d="M752.5,203.8c-0.1,2.2-0.4,4.3-0.6,6.3c0,0.2-0.1,0.3-0.1,0.5c-1.3,8.1-5.1,21.8-15.7,32.9
				c-0.2,0.2-0.4,0.4-0.6,0.6c-0.9,0.9-1.8,1.7-2.7,2.5c-0.4,0.3-0.8,0.7-1.2,1c-0.4,0.4-0.9,0.7-1.3,1c-0.4,0.3-0.7,0.5-1.1,0.8
				c-0.4,0.3-0.7,0.5-1,0.7c-0.3,0.2-0.6,0.4-0.9,0.6c-3.1,2.1-6.1,3.7-8.7,4.8c-0.3,0.1-0.7,0.3-1,0.4c-0.3,0.1-0.5,0.2-0.8,0.3
				c-0.3,0.1-0.5,0.2-0.8,0.3c-0.3,0.1-0.6,0.3-1,0.4c-0.6,0.2-1.1,0.4-1.7,0.6c0,0-1.3,0.4-1.9,0.6l-0.1,0L615,294.6L733.9,263
				c-15,19.6-16.6,34.6-16.6,34.6l-106.4,14l106.4-4c-14,12.5-16.6,29.1-16.6,29.1l-101.3,2l84.3,7.5
				c-26.1,10.5-32.1,25.6-32.1,25.6l-64.7-20.6l52.7,26.6c-16.6,3-26.6,12-26.6,12l-28.1-16.6l21.6,20.1c-8,7.5-26.6,7-26.6,7
				c-26.8-0.9-36.9,17.1-38,19.3l0,0.1c0,0-6.8-39.2,33.9-74.4c30.2-26.1,14.7-62.9,14.7-62.9L752.5,203.8z"/>
			<linearGradient id="SVGID_11_" gradientUnits="userSpaceOnUse" x1="718.5231" y1="249.9142" x2="735.409" y2="249.9142">
				<stop  offset="0" style="stop-color:#D4353B"/>
				<stop  offset="0.1764" style="stop-color:#CF343A"/>
				<stop  offset="0.3665" style="stop-color:#C23137"/>
				<stop  offset="0.5629" style="stop-color:#AE2D31"/>
				<stop  offset="0.7637" style="stop-color:#932629"/>
				<stop  offset="0.9662" style="stop-color:#731B1D"/>
				<stop  offset="1" style="stop-color:#6D191B"/>
			</linearGradient>
			<path class="st11" d="M735.4,244.2c-4.4,4.5-9.9,8.5-16.9,11.5c2.6-1.2,5.6-2.8,8.7-4.8c0.3-0.2,0.6-0.4,0.9-0.6
				c0.3-0.2,0.7-0.5,1-0.7c0.4-0.3,0.7-0.5,1.1-0.8c0.4-0.3,0.9-0.7,1.3-1c0.4-0.3,0.8-0.6,1.2-1
				C733.6,245.9,734.5,245.1,735.4,244.2z"/>
			<linearGradient id="SVGID_12_" gradientUnits="userSpaceOnUse" x1="713.2565" y1="257.7263" x2="713.2565" y2="257.7263">
				<stop  offset="0" style="stop-color:#D4353B"/>
				<stop  offset="0.1764" style="stop-color:#CF343A"/>
				<stop  offset="0.3665" style="stop-color:#C23137"/>
				<stop  offset="0.5629" style="stop-color:#AE2D31"/>
				<stop  offset="0.7637" style="stop-color:#932629"/>
				<stop  offset="0.9662" style="stop-color:#731B1D"/>
				<stop  offset="1" style="stop-color:#6D191B"/>
			</linearGradient>
			<path class="st12" d="M713.3,257.7"/>
		</g>
	</g>
	<linearGradient id="SVGID_13_" gradientUnits="userSpaceOnUse" x1="450.6595" y1="268.4123" x2="516.0295" y2="268.4123">
		<stop  offset="1" style="stop-color:#D2373A"/>
		<stop  offset="1" style="stop-color:#942529"/>
	</linearGradient>
	<polygon class="st13" points="516,251.6 496,251.6 450.7,285.2 	"/>
	<linearGradient id="SVGID_14_" gradientUnits="userSpaceOnUse" x1="348.0295" y1="402.9673" x2="419.8895" y2="402.9673">
		<stop  offset="1" style="stop-color:#D2373A"/>
		<stop  offset="1" style="stop-color:#942529"/>
	</linearGradient>
	<polygon class="st14" points="348,419.9 368,420 419.9,386 	"/>
	
		<linearGradient id="SVGID_15_" gradientUnits="userSpaceOnUse" x1="505.981" y1="476.7025" x2="505.981" y2="446.2387" gradientTransform="matrix(1 0 0 -1 0 690.9719)">
		<stop  offset="0.5369" style="stop-color:#D4353B"/>
		<stop  offset="0.6438" style="stop-color:#CF353A"/>
		<stop  offset="0.7545" style="stop-color:#C33338"/>
		<stop  offset="0.8671" style="stop-color:#AF2E34"/>
		<stop  offset="0.9802" style="stop-color:#922A2D"/>
		<stop  offset="1" style="stop-color:#8C292C"/>
	</linearGradient>
	<path class="st15" d="M495.9,234.6c0-1.7,0.3-3.7,1.6-5.6l1.5-2.4c0,0,2.2-3,1-5.5c0,0,1.7,0.8,1.8,3.4c0,0,0,1.6-0.5,2.8
		c-0.4,1.2-0.6,2.5-0.5,3.1c0.1,0.6,0.3,2.7,2.1,4.4c0,0-2.6-5.2,2-7.9c0,0-1.3,1.8-0.4,3.6s2.3,0.3,2.3,0.3s1.3-1.5,0-4l-1.2-1.8
		c0,0-2.7-3.7-1.1-7.8c0,0,0.8-2.1,2.9-3c0,0-2.6,3.4,2.1,8.9c0,0,7.6,7.5,2.4,13.1c0,0,2.9-0.7,3.3-5.5c1.1,1.4,3.3,13.6-9.3,14
		C497,244,496,237.1,495.9,234.6z"/>
</g>
</svg>
