<?xml version="1.0" encoding="utf-8"?>
<!-- Generator: Adobe Illustrator 24.0.2, SVG Export Plug-In . SVG Version: 6.00 Build 0)  -->
<svg version="1.1" id="Layer_1" xmlns="http://www.w3.org/2000/svg" xmlns:xlink="http://www.w3.org/1999/xlink" x="0px" y="0px"
	 viewBox="0 0 792 612" style="enable-background:new 0 0 792 612;" xml:space="preserve">
<style type="text/css">
	.st0{fill:url(#SVGID_1_);}
	.st1{fill:url(#SVGID_2_);}
	.st2{fill:url(#SVGID_3_);}
</style>
<g>
	<linearGradient id="SVGID_1_" gradientUnits="userSpaceOnUse" x1="404.1385" y1="97.0268" x2="404.1385" y2="281.4733">
		<stop  offset="0.5369" style="stop-color:#D3343B"/>
		<stop  offset="0.6438" style="stop-color:#CF333A"/>
		<stop  offset="0.7545" style="stop-color:#C23137"/>
		<stop  offset="0.8671" style="stop-color:#AE2E33"/>
		<stop  offset="0.9802" style="stop-color:#91292C"/>
		<stop  offset="1" style="stop-color:#8B282B"/>
	</linearGradient>
	<path class="st0" d="M343.3,220.4c-0.2-10.1,2-22.1,9.6-34l8.8-14.7c0,0,13.3-18,6.2-33.4c0,0,10.3,4.8,10.6,20.7
		c0,0-0.2,9.6-2.9,17.1c-2.7,7.4-3.8,15.2-3.1,19c0.7,3.8,1.8,16.1,12.8,26.6c0,0-15.9-31.3,12.4-47.6c0,0-7.9,10.6-2.7,21.9
		s13.7,1.9,13.7,1.9s7.7-8.9,0-24.2l-7.2-11.1c0,0-16.5-22.3-6.8-47.1c0,0,4.6-12.7,17.4-18.4c0,0-15.7,20.8,13,53.6
		c0,0,46.1,45.1,14.5,79.3c0,0,17.4-4.3,19.9-33.4c6.8,8.3,20.2,82.5-56.2,84.9C349.6,277.3,343.5,235,343.3,220.4z"/>
	<g>
		<linearGradient id="SVGID_2_" gradientUnits="userSpaceOnUse" x1="278.55" y1="501.55" x2="513.55" y2="266.55">
			<stop  offset="0" style="stop-color:#D3343B"/>
			<stop  offset="0.1502" style="stop-color:#D0333A"/>
			<stop  offset="0.2405" style="stop-color:#C83137"/>
			<stop  offset="0.3149" style="stop-color:#BA2D33"/>
			<stop  offset="0.3808" style="stop-color:#A6282C"/>
			<stop  offset="0.4404" style="stop-color:#8C2024"/>
			<stop  offset="0.4958" style="stop-color:#6C181A"/>
			<stop  offset="0.5" style="stop-color:#691719"/>
			<stop  offset="0.5042" style="stop-color:#6C181A"/>
			<stop  offset="0.5596" style="stop-color:#8C2024"/>
			<stop  offset="0.6192" style="stop-color:#A6282C"/>
			<stop  offset="0.6851" style="stop-color:#BA2D33"/>
			<stop  offset="0.7595" style="stop-color:#C83137"/>
			<stop  offset="0.8498" style="stop-color:#D0333A"/>
			<stop  offset="1" style="stop-color:#D3343B"/>
		</linearGradient>
		<polygon class="st1" points="506,259 506,494.3 460.2,494.3 380.1,416.7 380.1,449.8 286,509 286,273.9 331.8,273.9 420.4,363.5 
			420.4,317.8 		"/>
	</g>
	
		<linearGradient id="SVGID_3_" gradientUnits="userSpaceOnUse" x1="286" y1="227.95" x2="506" y2="227.95" gradientTransform="matrix(1 0 0 -1 0 612)">
		<stop  offset="1" style="stop-color:#D2353A"/>
		<stop  offset="1" style="stop-color:#932429"/>
	</linearGradient>
	<polygon class="st2" points="460.2,494.2 286,325.5 286,273.9 331.8,273.9 420.4,363.4 506,445.1 506,494.2 	"/>
</g>
</svg>
