<svg id="Layer_1" data-name="Layer 1" xmlns="http://www.w3.org/2000/svg" xmlns:xlink="http://www.w3.org/1999/xlink" viewBox="0 0 326.43 326.43"><defs><style>.cls-1{fill:#fff;}.cls-2{fill:url(#linear-gradient);}.cls-3{fill:url(#linear-gradient-2);}.cls-4{fill:url(#linear-gradient-3);}</style><linearGradient id="linear-gradient" x1="380.46" y1="177.74" x2="380.46" y2="285" gradientTransform="translate(0 2)" gradientUnits="userSpaceOnUse"><stop offset="0.54" stop-color="#d4353b"/><stop offset="0.64" stop-color="#cf353a"/><stop offset="0.75" stop-color="#c33338"/><stop offset="0.87" stop-color="#af2e34"/><stop offset="0.98" stop-color="#922a2d"/><stop offset="1" stop-color="#8c292c"/></linearGradient><linearGradient id="linear-gradient-2" x1="299.86" y1="179.84" x2="450.68" y2="330.66" gradientTransform="matrix(1, 0, 0, -1, -212.04, 469.22)" gradientUnits="userSpaceOnUse"><stop offset="0" stop-color="#d4353b"/><stop offset="0.15" stop-color="#cf353a"/><stop offset="0.24" stop-color="#c93237"/><stop offset="0.31" stop-color="#ba2f33"/><stop offset="0.38" stop-color="#a7292c"/><stop offset="0.44" stop-color="#8d2124"/><stop offset="0.5" stop-color="#6d191b"/><stop offset="0.5" stop-color="#6a181a"/><stop offset="0.5" stop-color="#6d191b"/><stop offset="0.56" stop-color="#8d2124"/><stop offset="0.62" stop-color="#a7292c"/><stop offset="0.69" stop-color="#ba2f33"/><stop offset="0.76" stop-color="#c93237"/><stop offset="0.85" stop-color="#cf353a"/><stop offset="1" stop-color="#d4353b"/></linearGradient><linearGradient id="linear-gradient-3" x1="299.96" y1="326.77" x2="450.62" y2="326.77" gradientTransform="translate(-212.04 -112.78)" gradientUnits="userSpaceOnUse"><stop offset="1" stop-color="#d2373a"/><stop offset="1" stop-color="#942529"/></linearGradient></defs><title>my-logo</title><rect class="cls-1" width="326.43" height="326.43"/><path class="cls-2" d="M345.06,251.5a34.64,34.64,0,0,1,5.62-19.81l5.14-8.57s7.74-10.48,3.63-19.46c0,0,6,2.81,6.17,12.06a36.86,36.86,0,0,1-1.72,9.94c-1.57,4.32-2.19,8.84-1.78,11s1,9.39,7.47,15.49c0,0-9.25-18.23,7.2-27.69,0,0-4.59,6.17-1.58,12.75s8,1.1,8,1.1,4.46-5.21,0-14.05L379,217.85s-9.59-13-4-27.42a20.35,20.35,0,0,1,10.14-10.69s-9.12,12.13,7.54,31.18c0,0,26.8,26.25,8.43,46.13,0,0,10.14-2.54,11.58-19.47,4,4.8,11.79,48-32.69,49.42C348.76,284.6,345.19,260,345.06,251.5Z" transform="translate(-212.04 -142.78)"/><polygon class="cls-3" points="238.59 138.49 238.59 289.48 207.27 289.48 146.96 230.93 146.96 259.04 105.79 289.48 87.84 289.4 87.84 138.49 119.24 138.49 179.96 199.93 179.96 168.61 220.65 138.49 238.59 138.49"/><polygon class="cls-4" points="207.27 289.48 87.92 173.9 87.92 138.49 119.32 138.49 180.04 199.85 238.59 255.84 238.59 289.48 207.27 289.48"/></svg>